<svg version="1.1" id="Layer_1" xmlns="http://www.w3.org/2000/svg" xmlns:xlink="http://www.w3.org/1999/xlink" x="0px" y="0px"
	 width="100%" viewBox="0 0 976 1008" enable-background="new 0 0 976 1008" xml:space="preserve">
<path fill="#000000" opacity="1.000000" stroke="none" 
	d="
M977.000000,208.555832 
	C974.161133,212.560776 970.217773,214.163086 966.010010,215.475037 
	C955.343140,218.800888 944.949402,222.754105 935.682251,229.640427 
	C936.020996,230.549423 936.225342,231.330338 936.585571,232.031128 
	C950.903687,259.884247 958.402344,289.002228 952.993408,320.507599 
	C952.084473,325.801697 950.018433,330.724457 947.920715,335.631165 
	C944.984619,342.498871 943.214417,349.528809 945.228882,357.015106 
	C945.569824,358.282532 945.734924,359.986603 946.614624,360.653412 
	C950.817139,363.839050 949.756897,367.603577 948.739197,371.840454 
	C937.065796,420.438416 922.985168,468.313690 905.947449,515.306213 
	C899.899353,531.987671 895.070923,549.072937 887.508484,565.281677 
	C885.276855,570.064880 883.838196,577.276794 886.909729,583.446167 
	C887.494995,584.621643 888.261230,586.049683 888.068542,587.216675 
	C886.186768,598.613647 890.572266,609.593750 890.096741,620.911194 
	C889.346130,638.773315 885.896545,655.905029 877.637634,671.900818 
	C867.067566,692.372742 853.992920,710.908813 836.094543,725.723083 
	C828.693359,731.848999 820.512939,736.556641 811.206177,739.104614 
	C808.693298,739.792603 806.233459,740.672302 805.039673,742.974548 
	C802.966309,746.972778 799.287476,748.027832 795.501526,749.506165 
	C786.358765,753.076050 777.397400,757.109497 768.350464,760.926575 
	C765.932434,761.946777 765.138916,764.112732 764.218018,766.283264 
	C761.875000,771.805542 758.809631,776.797852 754.988464,781.539185 
	C751.188904,786.253906 750.370667,792.857361 746.223938,797.632446 
	C744.374390,799.762207 742.903015,802.191833 740.484192,803.805603 
	C737.631836,805.708496 735.638000,808.452820 734.166992,811.428223 
	C722.396362,835.236755 703.349792,851.779663 681.392761,865.830322 
	C666.628906,875.277954 651.212952,883.580017 635.674316,891.430176 
	C626.344971,896.143372 616.150757,899.592529 606.524170,904.050171 
	C582.954163,914.964172 558.499512,923.906189 535.582947,936.294312 
	C515.254517,947.283447 494.775208,957.999329 474.229401,968.577271 
	C466.843231,972.380005 459.055939,975.400085 451.476685,978.832642 
	C446.823517,980.940002 441.795715,981.117981 436.875641,981.924377 
	C430.774445,982.924377 424.433167,982.871216 418.755219,985.896912 
	C418.086182,986.253479 417.075500,986.271362 416.306152,986.091431 
	C406.488403,983.795776 397.641235,987.692322 388.576691,990.309448 
	C370.265625,995.596252 351.782715,997.498169 333.935822,989.349182 
	C325.469147,985.483215 317.023895,981.624268 308.455139,977.968933 
	C296.840881,973.014282 287.902740,964.269165 280.383820,954.429138 
	C262.254608,930.703552 246.567673,905.315247 231.710876,879.463867 
	C227.070496,871.389465 223.803513,862.762268 225.401978,852.371948 
	C226.732773,843.721436 221.796432,835.324951 218.819351,827.048706 
	C216.620926,820.937134 213.385361,815.055603 212.160370,808.769836 
	C210.259811,799.017578 206.190979,789.930725 204.555389,780.105896 
	C202.917984,770.270142 200.128540,760.631958 198.079346,750.857788 
	C194.077209,731.768555 190.369919,712.528442 191.090271,692.984802 
	C191.438705,683.531738 190.568283,674.560120 188.723145,665.398621 
	C186.492432,654.322693 187.297791,642.985413 190.050415,632.204224 
	C194.054123,616.522766 195.185623,600.268127 199.627029,584.787964 
	C207.748276,556.482056 213.908997,527.632263 223.655853,499.767578 
	C227.769623,488.006989 230.473648,475.756592 233.953033,463.767883 
	C234.601410,461.533875 234.423523,459.596344 233.663895,457.480286 
	C229.263000,445.221161 228.315369,433.201813 233.247116,420.511292 
	C237.688370,409.083008 239.741867,396.753143 243.349594,385.035400 
	C246.104446,376.087738 250.172287,367.494293 252.264999,358.231537 
	C253.949570,350.775208 255.502365,343.221497 258.037903,336.037231 
	C266.938019,310.819397 276.072205,285.687012 287.910339,261.626282 
	C292.172791,252.962967 295.243347,243.784409 296.565186,234.130432 
	C298.496155,220.027267 302.682892,206.565887 307.945496,193.387161 
	C314.880127,176.021317 318.738434,157.744873 323.559387,139.757706 
	C324.214539,137.313324 324.953705,134.956009 326.236664,132.806183 
	C331.545837,123.909859 335.856476,114.543907 339.573608,104.888130 
	C340.498901,102.484596 340.920959,99.461922 344.791534,100.194786 
	C345.192810,100.270760 346.099670,99.525818 346.203186,99.040474 
	C347.281097,93.986176 351.797394,92.718666 355.479919,90.689491 
	C365.404449,85.220749 375.256683,79.646484 384.908142,73.696869 
	C391.653564,69.538689 399.545197,68.325172 407.041687,66.182144 
	C410.907104,65.077148 413.655548,64.057732 414.435364,59.055862 
	C415.298096,53.521736 420.366882,50.441879 425.101379,47.825047 
	C439.109344,40.082642 454.351379,35.971962 469.915710,32.896114 
	C474.196136,32.050213 478.237091,30.694363 482.225647,28.917189 
	C497.011688,22.329056 512.834412,19.776352 528.714966,17.930532 
	C546.594849,15.852338 564.595764,15.319079 582.596191,15.852309 
	C594.090271,16.192801 605.520691,17.405376 616.634949,20.505836 
	C623.216919,22.341980 629.857788,21.931185 636.493469,21.666334 
	C664.186279,20.561029 691.321472,23.179070 717.450256,33.133991 
	C719.582214,33.946259 721.993103,34.173656 724.299561,34.357582 
	C745.343140,36.035706 764.091919,44.701668 782.857239,53.388847 
	C808.440491,65.232368 832.353638,79.497643 851.844177,100.291573 
	C873.402161,123.291267 889.807556,149.167053 896.683350,180.388168 
	C897.593445,184.520691 898.485046,185.694504 903.289734,189.564270 
	C905.183899,185.855026 906.278687,181.911514 905.244446,178.229691 
	C902.772522,169.429886 905.749695,161.350479 907.324768,152.986542 
	C916.153748,156.532516 922.190613,170.722961 924.722107,193.818253 
	C943.201538,186.723297 961.184326,183.969849 976.739624,200.790955 
	C977.000000,203.370560 977.000000,205.741104 977.000000,208.555832 
M526.805054,233.724594 
	C512.530396,221.703430 500.215729,208.128967 492.588104,190.753021 
	C495.364929,200.413940 497.397919,210.326523 504.028503,218.405716 
	C508.265747,223.568695 510.218292,230.184677 514.720093,235.251572 
	C516.808289,237.601868 515.373413,239.882751 512.558899,239.310745 
	C506.833801,238.147232 500.815033,239.145081 495.303955,236.979446 
	C478.563446,230.401031 465.599335,219.423019 459.471222,202.306290 
	C456.976257,195.337509 453.051025,191.392319 446.661346,189.326584 
	C430.811554,184.202484 425.826630,166.625702 428.320282,154.443222 
	C429.437958,148.982727 427.874756,147.058838 423.042450,145.615448 
	C414.479675,143.057739 405.353333,142.046188 397.718719,136.755112 
	C396.158386,135.673767 394.459381,136.160553 393.249725,137.626221 
	C391.014862,140.334015 387.877533,141.418762 384.769867,142.651489 
	C376.778809,145.821335 369.913513,150.698425 363.417908,156.305222 
	C349.351196,168.447174 339.786377,183.650467 332.314423,200.413132 
	C329.539856,206.637604 325.531647,212.503906 324.428314,219.229218 
	C321.745911,235.579636 317.384460,251.428009 311.357178,266.798340 
	C306.743164,278.564606 300.995697,289.876648 296.948029,301.881775 
	C290.830200,320.026825 284.405548,338.052124 276.504944,355.519196 
	C275.806519,357.063324 274.311157,358.595428 275.551758,360.524048 
	C277.398254,361.028778 278.892731,360.085114 280.465027,359.628113 
	C291.653137,356.376221 302.348694,351.600983 313.798706,349.117096 
	C321.317719,347.485962 328.502167,347.028748 335.591614,350.898193 
	C338.774200,352.635254 342.389282,353.603455 345.849609,354.800537 
	C348.597870,355.751160 350.893555,357.214935 352.789246,359.466309 
	C361.168396,369.417755 370.341705,378.628601 379.454315,387.896057 
	C380.887634,389.353760 382.650543,390.182220 384.341705,391.230225 
	C395.769867,398.312439 404.554413,407.934998 410.850159,419.794037 
	C411.581390,421.171417 412.467773,422.960388 411.124634,424.473572 
	C409.908325,425.843842 408.357727,424.844574 406.914124,424.638428 
	C394.058563,422.802856 381.721954,419.027039 369.262665,415.456665 
	C349.752350,409.865723 329.791016,405.866730 310.194427,400.552765 
	C296.356903,396.800446 282.449036,393.553833 268.359833,390.972046 
	C265.734802,390.491058 264.745331,391.378876 264.117676,393.726929 
	C263.086578,397.584137 262.225189,401.561859 260.584290,405.166443 
	C256.006866,415.221619 253.960709,425.281158 258.778564,435.837860 
	C259.113586,436.571930 259.040527,437.481171 259.260620,438.280487 
	C261.036102,444.727661 259.541534,451.476074 260.739441,457.936584 
	C263.232727,458.469940 264.893555,457.221741 266.694702,456.445801 
	C270.501617,454.805695 274.265167,453.038147 278.156189,451.624786 
	C294.362854,445.737732 310.985474,448.772034 326.973969,451.457672 
	C339.155151,453.503784 351.487946,455.857086 363.563385,458.960266 
	C372.823669,461.340057 382.552155,462.044342 390.211823,469.108887 
	C394.000671,472.603394 398.402496,475.314026 400.463135,480.352539 
	C402.281525,484.798706 407.089722,486.640533 410.540558,490.854858 
	C402.033691,493.219757 395.883057,487.562714 388.723663,486.889740 
	C388.272705,488.323425 387.946198,489.598633 387.476715,490.818878 
	C377.783142,516.014771 355.782410,537.631531 324.419373,526.647339 
	C311.553497,522.141296 302.890778,515.592773 299.939209,501.499268 
	C297.798553,491.277740 298.816010,481.587372 300.708984,471.432556 
	C296.417480,471.155426 292.360992,470.597473 288.347260,469.964661 
	C283.475830,469.196686 278.124268,468.179657 273.092773,470.412781 
	C268.600281,472.406616 264.168427,473.168488 260.625427,468.439301 
	C258.115906,470.742859 256.350128,472.995911 255.384933,475.967133 
	C252.254868,485.602478 248.826172,495.142181 245.779343,504.802917 
	C241.432114,518.586914 236.953400,532.346863 233.214890,546.300354 
	C229.638412,559.649048 225.865845,572.920959 221.846222,586.142822 
	C217.642075,599.971680 212.839951,613.672852 210.678162,628.051514 
	C210.236282,630.990784 208.911591,634.791260 210.859039,636.770386 
	C214.771194,640.746460 213.333725,644.586548 212.362946,648.795288 
	C211.766830,651.379761 211.418976,654.036133 211.162567,656.679871 
	C210.935394,659.022217 211.293747,660.620422 213.941422,662.224976 
	C220.770203,666.363586 222.450516,672.180847 220.282562,680.094666 
	C219.346008,683.513367 218.890884,686.975647 218.831406,691.034851 
	C223.922333,685.126953 226.361267,683.339417 227.729050,685.001282 
	C231.388382,689.447388 237.519485,689.433105 241.068054,693.424011 
	C242.970230,695.563416 243.374985,698.580750 242.942047,701.474426 
	C242.563385,704.005554 241.929184,706.498352 241.407852,709.008118 
	C242.232132,708.379883 242.511505,707.621582 242.773041,706.857178 
	C243.832504,703.760620 246.043198,702.273926 249.257614,702.518433 
	C252.512711,702.765930 253.667786,705.203308 254.230133,707.949219 
	C254.629623,709.899963 254.763565,711.906250 254.991776,713.890564 
	C255.245697,716.098450 256.229309,717.598938 258.489807,717.844116 
	C259.533417,717.308838 259.494263,716.433350 259.590607,715.617004 
	C260.067139,711.580200 261.841553,708.255432 266.229156,708.239075 
	C270.473602,708.223206 273.195862,710.850220 274.158661,715.189392 
	C275.186890,719.823181 278.624146,721.358521 283.242096,719.161072 
	C285.324097,718.170288 287.551849,716.996338 289.030090,715.307373 
	C297.418854,705.723083 308.722290,700.644775 319.753265,695.202209 
	C324.690460,692.766235 330.057587,689.952271 333.857117,696.147522 
	C336.712341,695.201050 338.911987,693.671753 340.768951,694.012146 
	C345.605743,694.898621 347.983856,691.432617 351.127655,689.229492 
	C352.800110,688.057434 353.084991,685.226257 356.278687,685.226685 
	C356.420593,689.980957 360.821960,691.765137 363.724854,696.013245 
	C364.421082,694.873474 364.926270,694.021240 365.456573,693.184814 
	C366.062927,692.228333 367.147034,691.539001 367.099121,689.862549 
	C353.461700,683.229858 347.852661,670.839783 345.504089,656.765991 
	C341.116119,630.470947 352.975464,609.126892 367.597107,588.993774 
	C377.352325,575.561523 392.017120,566.916077 402.769104,554.369080 
	C403.811279,553.152893 405.413635,552.357788 406.860931,551.556885 
	C422.580200,542.857849 438.317474,534.191345 454.059448,525.533508 
	C455.663300,524.651367 457.311340,523.843323 458.972198,523.072693 
	C461.000885,522.131409 462.263245,522.858826 463.486298,524.733154 
	C466.212799,528.911865 462.848480,530.716431 460.379059,532.237244 
	C442.711914,543.118164 428.473602,558.385193 411.508148,570.181519 
	C404.853821,574.808289 398.616364,580.212769 393.792908,586.946350 
	C391.860596,589.643921 391.257263,593.164185 388.547333,595.373169 
	C376.243164,605.403076 370.721313,619.593506 365.877045,633.881104 
	C362.630341,643.456787 360.172577,653.748047 370.107330,661.722351 
	C370.453735,662.000366 370.633820,662.593201 370.721039,663.070435 
	C372.182922,671.068359 378.216003,675.307922 384.204712,679.631775 
	C399.636902,690.773926 416.275909,699.916931 432.868347,709.141479 
	C434.100403,709.826416 436.031219,710.244263 434.795593,712.335449 
	C432.800232,715.712402 436.329529,716.862183 437.693665,718.116211 
	C439.383057,719.669189 441.330017,717.748901 442.443542,715.957703 
	C443.143585,714.831665 443.521759,713.498413 444.262756,712.406311 
	C446.328766,709.361328 449.131958,706.820557 452.913910,707.597046 
	C456.256897,708.283447 456.537445,711.894287 457.399353,714.747009 
	C458.567841,718.614380 457.821075,722.659180 458.509216,726.909485 
	C462.032562,726.179199 465.661743,724.299744 468.432678,727.566162 
	C470.558960,730.072754 473.010986,731.135559 476.220306,731.223328 
	C479.923218,731.324402 482.785858,733.476440 485.433014,735.808533 
	C489.321472,739.234314 492.799072,743.054260 495.714172,747.350952 
	C499.667206,753.177490 503.286652,759.302063 510.181122,762.459961 
	C511.058411,760.515991 511.518036,757.621094 514.791504,757.911072 
	C517.959473,758.191711 518.419800,760.993103 519.206665,763.308228 
	C520.256836,766.398315 521.135559,769.546631 522.094238,772.690430 
	C529.260071,769.771179 533.754333,770.845459 534.788391,776.305237 
	C535.543396,780.291443 537.872498,781.696289 540.848206,783.074463 
	C546.806335,775.832886 551.448059,776.598755 556.758972,785.927063 
	C557.279480,785.489624 557.857239,785.147949 558.243286,784.655823 
	C560.455994,781.834961 563.169495,779.836365 566.839966,781.167419 
	C570.732178,782.578796 571.454956,786.030029 571.359802,789.777954 
	C571.282715,792.811951 571.344116,795.849609 571.344116,799.183167 
	C573.489746,798.314087 573.992920,796.646790 574.794922,795.250732 
	C576.404236,792.449036 578.623535,790.575623 582.028870,790.848145 
	C585.603943,791.134216 587.759888,793.347534 588.854553,796.590576 
	C589.490173,798.473511 589.847046,800.452820 590.290527,802.397583 
	C590.739868,804.368103 592.286621,804.948914 593.964783,805.282227 
	C595.656799,805.618347 596.236145,804.287964 596.919495,803.131226 
	C597.849426,801.557129 598.692322,799.908264 599.801392,798.467651 
	C603.641724,793.479004 608.961731,793.541077 612.604797,798.672791 
	C613.641846,800.133606 614.223022,801.928467 614.947571,803.598694 
	C616.570740,807.340454 620.643616,808.001892 623.118347,804.786377 
	C624.224426,803.349121 624.915344,801.599304 625.869812,800.037170 
	C630.868103,791.855835 634.847595,791.608887 640.913635,799.103821 
	C642.850525,801.496887 645.696350,801.655396 646.368347,798.991150 
	C648.139160,791.970581 653.248901,786.883301 655.963135,780.504578 
	C659.055481,773.237183 659.753174,772.899719 666.573914,776.904968 
	C668.717163,774.635498 670.641785,772.107422 673.616455,770.701233 
	C677.548035,768.842590 679.372375,771.812927 681.621765,773.933533 
	C681.840881,774.140198 682.248169,774.293152 682.539917,774.255066 
	C686.850769,773.692566 689.692688,776.109192 691.685303,778.942932 
	C697.452209,777.408447 698.804382,772.882751 700.432617,768.530579 
	C702.598938,762.740112 705.277466,757.162964 708.700562,752.033569 
	C711.960022,747.149414 716.651184,747.371887 719.997009,752.191284 
	C720.525024,752.951843 720.586243,754.128662 722.152527,754.449890 
	C723.269104,750.691345 724.393372,746.912537 725.514160,743.132690 
	C726.477173,739.884949 728.680664,737.550598 732.003296,738.147827 
	C735.437317,738.764893 736.452576,737.162537 737.401367,734.619690 
	C739.269165,729.613464 741.576599,724.806824 744.374329,720.253967 
	C746.162598,717.343872 748.430725,714.498657 751.994080,714.374390 
	C755.198303,714.262756 756.195496,712.465332 757.414673,710.197021 
	C766.092651,694.052368 774.854431,677.949463 785.976685,663.298401 
	C787.697083,661.032288 788.299500,658.457031 788.516663,655.841064 
	C789.417175,644.991882 792.643372,634.625732 795.115662,624.127380 
	C800.569458,600.968079 808.770142,578.542847 813.854919,555.270630 
	C815.687317,546.884277 812.799500,544.257812 804.410095,546.798462 
	C802.310852,547.434204 800.429688,548.414673 798.779053,549.913391 
	C797.754272,550.843872 796.880493,552.397339 794.777527,551.527222 
	C794.745422,550.988403 794.494507,550.279419 794.702148,549.750549 
	C800.488525,535.010437 806.882507,520.558228 816.906311,508.114441 
	C819.331055,505.104309 819.632507,502.717377 818.167053,499.149506 
	C813.751343,488.399109 809.898132,477.442963 807.719849,465.949585 
	C807.010986,462.209473 807.128906,458.841187 808.507690,455.257690 
	C816.551941,434.351013 820.985291,412.472778 825.550720,390.640167 
	C825.947388,388.743225 826.388489,386.408325 823.924133,385.433807 
	C820.595154,384.117432 821.193909,381.769836 821.923401,379.248474 
	C822.432373,377.489197 822.896729,375.716492 823.354309,373.942932 
	C828.017883,355.867737 829.184143,337.153748 833.361938,318.987671 
	C833.532959,318.244354 833.560791,317.007599 833.125366,316.654785 
	C827.103455,311.775085 824.190552,304.224457 818.173523,299.361023 
	C816.614868,298.101196 815.046448,296.796204 814.601318,294.692200 
	C813.764526,290.737335 811.207275,287.940552 808.492737,285.170532 
	C803.925354,280.509796 798.606567,276.742737 793.730347,272.459930 
	C784.278137,264.157898 772.174255,258.930420 765.125183,247.833145 
	C764.797852,247.317841 764.092529,246.728882 763.547607,246.713074 
	C756.627197,246.512497 753.239075,241.175934 749.465698,236.736526 
	C744.921997,231.390717 740.664551,225.915451 734.217224,222.602249 
	C731.266296,221.085785 728.717407,220.364609 726.032898,222.909592 
	C724.396240,224.461166 722.273804,225.435471 720.098633,225.102325 
	C711.063477,223.718552 701.307922,225.642960 693.309448,219.307098 
	C691.763062,218.082108 689.847656,217.323563 688.104614,216.346008 
	C676.941711,210.085281 674.142578,210.386383 665.074280,218.879456 
	C662.220032,218.144836 660.636902,214.175217 656.211548,215.505814 
	C657.234619,226.878052 665.305115,232.385300 674.313782,237.186813 
	C670.379272,242.447342 665.751892,244.894150 659.918640,245.257965 
	C653.106995,245.682816 646.695801,243.964325 640.413025,241.668320 
	C628.505493,237.316803 617.892273,230.323166 606.524963,224.860229 
	C604.170776,223.728851 602.016724,222.253876 599.369934,222.001389 
	C598.318481,226.934509 600.772217,229.301483 604.885193,230.712494 
	C607.558838,231.629715 610.208130,232.679535 612.740479,233.929123 
	C615.149170,235.117706 617.823120,236.628448 616.518250,239.950256 
	C615.352600,242.917389 612.567200,242.569992 610.049805,241.964996 
	C605.354004,240.836456 600.688232,239.583511 596.001709,238.415558 
	C578.193909,233.977646 561.397034,227.449814 547.433044,215.026596 
	C547.121155,214.749100 546.603577,214.432434 546.606995,214.421539 
	C550.235352,218.378738 553.645020,222.017441 556.962769,225.738052 
	C560.397644,229.589890 563.813477,233.463196 567.100952,237.440170 
	C568.977051,239.709824 570.123596,242.363342 568.633911,245.293213 
	C567.110657,248.289200 564.397217,249.461334 561.160522,249.297455 
	C553.978882,248.933777 546.994629,248.162598 540.803162,243.707886 
	C536.348572,240.502838 531.664185,237.605911 526.805054,233.724594 
M463.837067,929.754395 
	C462.856323,936.135315 463.072113,942.671448 460.482788,949.075928 
	C463.024170,948.809448 463.340088,947.348999 463.844055,946.198975 
	C465.906647,941.491943 468.461121,937.028870 469.772125,931.953308 
	C470.845978,927.795898 472.404358,923.656982 474.437073,919.880859 
	C476.955231,915.202942 482.027649,915.449890 484.763214,920.016296 
	C486.643066,923.154175 486.882416,926.576721 486.716766,930.146790 
	C486.560028,933.524658 485.466888,936.892456 486.193817,940.556763 
	C489.994720,940.263123 490.531616,937.430054 491.192108,934.979736 
	C493.214325,927.477966 496.766296,920.746155 501.162445,914.415588 
	C501.714172,913.620911 502.754211,912.233948 503.091797,912.363403 
	C507.373444,914.004883 507.479248,909.893066 509.012817,908.044373 
	C510.696838,906.014465 511.803406,903.517700 513.331787,901.343994 
	C518.173340,894.458252 518.331665,894.443359 525.604797,897.889282 
	C527.204407,895.751160 528.239929,893.436768 528.787781,890.733948 
	C529.941956,885.040466 531.400574,879.406128 532.833496,873.772766 
	C533.669006,870.488220 535.814514,868.488281 539.303467,868.708557 
	C541.835205,868.868469 543.445496,868.036499 544.444031,865.750183 
	C544.985168,864.511108 545.802551,862.989502 547.073608,862.915222 
	C552.497131,862.598206 553.591248,857.982056 555.920105,854.535583 
	C558.592285,850.580994 560.607178,845.747070 566.062256,844.904236 
	C569.450989,844.380798 570.995972,842.382874 570.524597,839.490173 
	C569.892944,835.614075 570.634399,829.850708 566.437988,828.683350 
	C560.050964,826.906677 557.440613,823.045959 556.205566,816.910828 
	C552.965393,817.550049 549.973633,817.040161 547.568481,815.135010 
	C539.093933,808.422363 528.284424,810.661255 518.895203,807.502258 
	C518.377075,807.327881 517.628235,807.739868 517.015930,807.960022 
	C510.717957,810.224304 509.127747,809.723633 505.186188,804.530884 
	C504.184357,803.210999 503.790497,800.887939 501.179626,801.631348 
	C496.683685,802.911438 494.162445,800.851929 493.074310,796.622437 
	C492.662964,795.023438 491.884430,793.704956 490.189148,793.619507 
	C488.057098,793.511963 488.008331,795.339905 487.919739,796.808594 
	C487.641266,801.426086 483.597656,801.283447 480.938629,801.419373 
	C478.231781,801.557739 475.359070,800.491150 474.940460,796.282227 
	C474.566986,792.527344 472.637115,788.944092 470.218964,785.859497 
	C466.917114,787.640564 470.075867,794.596802 463.702728,793.054321 
	C458.965057,791.907776 460.889709,786.221924 457.697449,783.903870 
	C453.154480,784.602173 453.055603,788.618225 451.702209,791.664307 
	C450.747253,793.813660 449.808472,796.166077 447.130005,796.482361 
	C444.641876,796.776062 443.394592,794.722473 441.995026,793.057495 
	C438.948822,789.433533 435.358826,786.300293 432.787781,782.116577 
	C430.388916,784.769409 431.503693,788.522766 428.605072,790.514526 
	C425.694183,789.754395 424.150085,787.806824 423.756561,784.928528 
	C423.481781,782.918762 423.468414,780.548462 421.102966,780.067200 
	C418.435608,779.524536 416.441864,781.616577 415.636536,783.644958 
	C413.578308,788.829041 410.408813,788.132629 406.040894,786.930908 
	C400.045471,785.281494 397.945465,781.814148 399.336945,776.004578 
	C395.376556,774.786072 393.175537,777.214966 390.741028,778.707825 
	C385.972565,781.631836 382.813477,780.655212 380.809784,775.353577 
	C380.036804,773.308289 379.837341,771.216919 380.398193,768.986328 
	C380.898987,766.994568 381.722626,764.756226 379.496094,762.939148 
	C372.736420,764.451233 376.230377,774.276672 369.220673,775.667053 
	C368.326385,773.804382 368.442352,770.953735 365.380096,771.288818 
	C361.342804,771.730591 359.574921,769.683228 359.366364,765.439392 
	C354.081055,767.038513 350.988739,764.306702 348.817474,759.918274 
	C346.528168,761.580139 344.905579,763.029724 343.046631,764.047424 
	C339.800537,765.824402 336.246582,766.344177 333.179932,763.923157 
	C330.069672,761.467590 330.633057,758.397461 332.159027,754.981628 
	C333.117981,752.835266 335.220520,750.608643 334.026031,747.694214 
	C331.131378,747.999390 330.499329,750.336426 329.292328,752.010986 
	C326.399689,756.024109 321.375946,757.241577 317.558441,757.428284 
	C314.073029,757.598572 315.643494,751.953857 314.699554,748.963196 
	C314.620087,748.711487 314.242859,748.553772 313.951538,748.308228 
	C311.822266,749.071594 311.801208,751.072632 311.460083,752.778015 
	C310.315491,758.500610 308.768951,759.377869 303.508057,756.429688 
	C300.631317,754.817505 297.712921,753.497437 294.539886,754.178162 
	C288.216278,755.534851 281.969788,755.403992 275.660004,754.332397 
	C274.165588,754.078613 272.576538,754.292725 271.332947,755.202393 
	C268.665588,757.153564 266.209930,756.761475 263.474854,755.222534 
	C259.077484,752.748230 254.781219,751.575745 250.022202,755.191406 
	C245.468582,758.651001 244.082169,767.873718 248.772919,770.436340 
	C255.398041,774.055664 256.954193,780.158325 258.202087,786.547852 
	C260.590973,798.779480 259.324585,811.157288 258.863892,823.434692 
	C258.530945,832.307617 261.227020,838.477722 269.674561,841.723755 
	C272.081085,842.648499 272.250122,844.474609 271.646301,846.644104 
	C270.084930,852.254272 268.686707,857.914124 266.961945,863.473022 
	C265.989746,866.606445 266.546295,869.191528 268.058472,872.022583 
	C271.238770,877.976257 276.988953,882.410889 278.295654,889.483643 
	C278.454742,890.344910 279.516479,891.045288 280.933044,890.922546 
	C282.319366,889.119080 283.575043,886.908142 285.370026,885.298462 
	C287.557861,883.336365 290.045929,881.274170 293.397583,882.360962 
	C296.865051,883.485352 297.463684,886.471680 298.569611,889.601074 
	C300.269928,894.412354 298.472626,898.396729 297.111694,902.566589 
	C295.760162,906.707642 295.942596,910.697144 297.163208,914.782349 
	C299.120056,911.163025 300.442108,907.442261 302.030701,903.839111 
	C302.780457,902.138611 303.062958,899.335327 305.595428,899.666992 
	C308.324097,900.024414 309.730316,902.363342 309.951019,905.078979 
	C310.166504,907.730408 310.035553,910.408508 310.201416,913.065857 
	C310.306335,914.746582 309.625061,916.801880 312.402863,918.052185 
	C314.762848,913.082092 317.081848,908.175537 319.424225,903.280151 
	C320.084869,901.899414 320.904663,900.351807 322.665924,900.686768 
	C324.642944,901.062744 324.140015,902.965393 324.291992,904.393982 
	C324.627289,907.545288 323.330109,910.975098 325.954987,914.315796 
	C329.976868,909.556702 329.505615,903.456543 331.709259,897.912109 
	C333.587860,900.211426 331.654785,902.923401 334.380005,904.204163 
	C336.978821,905.425415 337.659088,908.136719 338.318268,910.815002 
	C339.947510,917.434326 343.689087,918.455383 348.619690,913.763245 
	C349.343231,913.074707 350.032410,912.347290 350.704498,911.607910 
	C352.891785,909.201111 355.018066,909.495300 357.075043,911.754944 
	C358.608765,913.440125 359.152405,915.488953 359.236664,917.726685 
	C359.452179,923.452881 358.089447,928.959656 357.024597,934.515808 
	C355.637482,941.753113 354.340851,949.007751 352.888947,956.886536 
	C355.643585,956.138062 356.829987,954.638550 357.291168,952.956665 
	C358.651245,947.996521 360.190125,943.337646 365.201904,940.686096 
	C369.609833,938.354126 371.841217,933.704285 375.399963,929.542603 
	C378.525238,936.032654 378.529236,942.132751 378.539246,948.791199 
	C380.292755,946.908630 380.343384,944.086853 382.649841,943.534973 
	C387.153687,942.457092 388.431061,938.868286 388.421356,935.205994 
	C388.399872,927.112488 393.320465,921.201233 396.682922,914.608643 
	C398.333832,911.371826 400.669189,911.890930 402.376434,914.654785 
	C404.287415,917.748352 404.819336,921.256531 403.785431,924.762024 
	C402.536011,928.998047 402.053406,933.165100 403.284729,937.491943 
	C403.850586,939.480408 403.270233,942.048645 406.217743,942.595154 
	C408.857513,943.084534 411.271210,942.646057 412.826660,940.225220 
	C417.103668,933.568481 420.400177,926.306824 425.842773,920.358337 
	C427.947144,918.058167 429.045441,914.371948 433.029510,915.659363 
	C436.785645,916.873047 436.773041,920.395508 436.539795,923.610657 
	C436.366394,926.001587 435.833649,928.366455 435.479126,930.626770 
	C440.364777,931.691833 443.030273,930.328491 443.971619,925.722168 
	C444.498108,923.145935 445.545258,920.605164 446.762360,918.258240 
	C448.401123,915.098145 449.935791,910.403870 454.284943,911.651855 
	C458.964355,912.994385 458.423584,917.862549 457.894348,921.899475 
	C457.539551,924.605896 456.500641,927.265686 457.134430,929.476318 
	C459.870636,931.346985 461.401398,927.691956 463.837067,929.754395 
M784.529480,724.636597 
	C788.483398,723.266724 792.373657,722.107910 796.647888,723.710815 
	C798.954346,724.575867 801.153625,723.378784 803.210999,722.117920 
	C824.868713,708.845764 842.168457,691.318481 856.049377,670.015686 
	C868.291504,651.227966 872.737915,630.815979 871.677124,608.819641 
	C871.547546,606.132263 871.275146,603.235413 869.537292,601.250488 
	C866.513916,597.797302 865.375671,593.795105 864.660706,589.485718 
	C864.387573,587.839600 863.931824,585.980591 861.914307,585.784607 
	C860.068970,585.605530 859.725891,587.521484 858.898865,588.695740 
	C850.751526,600.263550 845.732910,613.708130 837.023193,624.957764 
	C832.546448,630.740051 828.471130,636.832764 824.203491,642.777466 
	C817.089600,652.686768 812.571777,664.081177 806.045166,674.345154 
	C796.307739,689.658630 787.669617,705.595886 780.436584,722.262939 
	C779.958923,723.363647 778.755371,724.498047 780.108154,726.032715 
	C781.317139,725.642700 782.565552,725.239929 784.529480,724.636597 
z"/>
<path fill="#000000" opacity="1.000000" stroke="none" 
	d="
M26.410999,386.848572 
	C18.956923,382.254089 15.341809,375.985718 15.856741,367.487823 
	C15.915977,366.510254 15.856711,365.438385 15.516993,364.536621 
	C8.608475,346.198608 21.582531,329.065430 35.740986,322.204498 
	C51.936306,314.356628 67.896507,315.249268 83.575447,323.799377 
	C85.007309,324.580200 86.460808,325.321350 88.285370,326.281494 
	C91.143967,319.697449 92.155556,312.968079 93.688347,306.412354 
	C97.108192,291.785645 98.756912,276.945435 98.987434,261.912750 
	C99.092537,255.058960 100.222832,248.316177 104.225189,242.417847 
	C110.602013,233.020187 120.216988,229.448059 131.202148,232.382690 
	C142.099884,235.293961 150.476944,241.945953 157.697479,250.265244 
	C160.969131,254.034729 164.121704,257.914551 167.185150,261.855621 
	C169.737701,265.139435 170.816223,268.786224 167.817047,272.336456 
	C164.891006,275.800110 161.152802,276.504669 157.011734,274.497223 
	C151.486420,271.818756 147.638687,267.091125 143.222916,263.076355 
	C138.887650,259.134766 134.423325,255.394928 129.026062,253.023529 
	C124.165314,250.887848 122.579987,251.758682 122.357674,257.075989 
	C122.093666,263.390533 122.342018,269.726196 122.356728,276.052734 
	C122.403641,296.224884 117.523056,315.593414 112.655251,334.951569 
	C110.586288,343.179352 108.457512,351.405731 105.944405,359.505066 
	C101.731079,373.083923 88.704765,384.046326 73.699104,382.952057 
	C68.109306,382.544434 63.580009,383.740570 58.601059,385.947235 
	C48.289833,390.517273 37.547573,392.262726 26.410999,386.848572 
z"/>
<path fill="#000000" opacity="1.000000" stroke="none" 
	d="
M597.080017,617.054321 
	C590.586243,615.557190 585.723206,612.332092 582.114441,607.192688 
	C580.055542,604.260559 576.835693,602.643799 574.169128,600.407227 
	C562.987427,591.028748 558.254883,580.112610 563.816895,565.501282 
	C565.763000,560.389038 565.767578,554.481750 569.048035,548.961121 
	C558.637390,547.239075 550.738831,541.997742 542.303772,536.651123 
	C546.563293,531.912231 551.610168,530.767822 556.719360,531.581787 
	C574.603027,534.430786 592.624573,536.618469 610.200073,541.132019 
	C619.697510,543.571045 629.077820,546.483215 638.456543,549.359436 
	C642.338623,550.550049 645.389648,553.342529 648.504944,555.795349 
	C661.687805,566.174438 675.706726,575.604797 686.544373,588.697021 
	C687.286621,589.593689 687.987915,590.528992 688.648865,591.487244 
	C690.041199,593.505859 690.883911,595.645386 689.453857,597.989197 
	C687.974365,600.414062 685.922791,601.945984 682.911011,601.763855 
	C675.646484,601.324402 668.874573,599.642090 662.978027,594.972412 
	C658.198364,591.187195 656.957153,591.324463 653.267700,596.298645 
	C644.010315,608.779663 632.258606,617.206543 616.477844,618.502991 
	C610.187561,619.019836 603.564514,620.774109 597.080017,617.054321 
z"/>
<path fill="#000000" opacity="1.000000" stroke="none" 
	d="
M682.873169,527.189453 
	C677.169128,525.204285 671.918274,523.082886 666.129150,522.952087 
	C664.868896,522.923645 663.510315,522.380005 662.391296,521.736084 
	C652.363770,515.965881 641.844299,512.154175 630.282532,510.071625 
	C616.428650,507.576202 603.343201,501.260925 589.354736,499.280182 
	C579.973877,497.951904 570.938721,495.834045 561.998047,492.974060 
	C560.187256,492.394775 557.553467,492.358002 557.400818,489.859650 
	C557.243347,487.283447 559.866821,487.023712 561.652161,486.396545 
	C582.362549,479.121796 602.183472,469.387787 623.637939,464.149811 
	C629.995422,462.597717 636.285706,461.483246 642.872070,461.922913 
	C647.829834,462.253906 652.794495,462.565063 657.808655,462.130890 
	C664.279358,461.570587 669.168640,465.564484 674.034363,468.971191 
	C691.970154,481.528687 707.533875,496.780792 722.270996,512.835449 
	C727.124817,518.123352 729.310059,525.864197 735.692444,529.818237 
	C742.432617,533.993958 746.729309,540.298218 751.721436,546.036194 
	C753.018982,547.527588 754.242676,549.180725 753.573303,551.388489 
	C751.233704,553.276917 748.709167,551.606567 746.352112,551.745667 
	C745.753296,553.965759 748.603394,555.310059 747.028931,558.240112 
	C739.747437,554.812317 732.213379,551.853455 725.266541,547.870422 
	C711.692871,540.087952 698.345703,531.939514 682.873169,527.189453 
z"/>
<path fill="#000000" opacity="1.000000" stroke="none" 
	d="
M396.448700,837.751831 
	C374.322815,831.297668 353.417511,823.585022 337.576569,806.163330 
	C329.853638,797.669800 321.413025,789.828796 314.563690,780.548340 
	C313.594910,779.235718 312.220886,778.153320 312.144470,776.137451 
	C314.583496,773.617126 317.253784,775.005737 319.288177,776.369568 
	C326.145233,780.966553 334.356964,781.125305 341.829163,783.655212 
	C343.400696,784.187256 345.110077,784.408630 346.399506,785.475464 
	C357.529755,794.683838 370.877289,799.234985 384.143097,804.265747 
	C399.121399,809.946045 414.204315,813.903870 430.336884,813.085571 
	C432.287720,812.986694 434.485046,813.099182 436.204559,813.897095 
	C443.444641,817.256958 450.598846,817.079041 457.962708,814.389648 
	C465.527191,811.626892 473.734924,812.013794 481.453857,809.846191 
	C485.887878,808.601013 487.896942,812.019897 489.292633,815.189514 
	C490.756226,818.513489 487.345215,819.240784 485.412109,820.470276 
	C479.122040,824.470947 472.427887,827.712158 466.235596,832.016418 
	C460.582123,835.946228 452.917419,836.067566 446.030243,836.847839 
	C434.308350,838.175903 422.496277,838.750977 410.710815,839.453430 
	C406.044037,839.731628 401.420471,838.887207 396.448700,837.751831 
z"/>
</svg>